<svg width="22" height="24" viewBox="0 0 22 24" fill="none" xmlns="http://www.w3.org/2000/svg">
<g clip-path="url(#clip0)">
<path d="M8.25002 10.5156C5.72275 10.5156 3.66663 8.27271 3.66663 5.51569C3.66663 2.75867 5.72275 0.515625 8.25002 0.515625C10.7773 0.515625 12.8334 2.75867 12.8334 5.51569C12.8334 8.27271 10.7773 10.5156 8.25002 10.5156V10.5156ZM8.25002 2.01562C6.48091 2.01562 5.04163 3.58557 5.04163 5.51569C5.04163 7.44562 6.48091 9.01556 8.25002 9.01556C10.0191 9.01556 11.4584 7.44562 11.4584 5.51569C11.4584 3.58557 10.0191 2.01562 8.25002 2.01562V2.01562Z" fill="white"/>
<path d="M20.3959 23.5157H15.3541C14.4696 23.5157 13.75 22.7307 13.75 21.7656V18.2657C13.75 17.3005 14.4696 16.5156 15.3541 16.5156H20.3959C21.2804 16.5156 22 17.3005 22 18.2657V21.7656C22 22.7307 21.2804 23.5157 20.3959 23.5157V23.5157ZM15.3541 18.0156C15.2277 18.0156 15.125 18.1276 15.125 18.2657V21.7656C15.125 21.9036 15.2277 22.0157 15.3541 22.0157H20.3959C20.5223 22.0157 20.625 21.9036 20.625 21.7656V18.2657C20.625 18.1276 20.5223 18.0156 20.3959 18.0156H15.3541Z" fill="white"/>
<path d="M19.4791 18.0156H16.2709C15.8914 18.0156 15.5834 17.6796 15.5834 17.2656V15.0156C15.5834 13.6377 16.6118 12.5156 17.875 12.5156C19.1382 12.5156 20.1666 13.6377 20.1666 15.0156V17.2656C20.1666 17.6796 19.8586 18.0156 19.4791 18.0156V18.0156ZM16.9584 16.5156H18.7916V15.0156C18.7916 14.4646 18.38 14.0156 17.875 14.0156C17.3699 14.0156 16.9584 14.4646 16.9584 15.0156V16.5156Z" fill="white"/>
<path d="M11.4584 21.5156H0.6875C0.307999 21.5156 0 21.1796 0 20.7656V17.2656C0 14.6466 1.9534 12.5156 4.35411 12.5156H12.375C13.1414 12.5156 13.8957 12.7366 14.5558 13.1556C14.884 13.3636 14.9948 13.8226 14.8042 14.1806C14.6136 14.5397 14.1928 14.6596 13.8636 14.4516C13.4136 14.1667 12.8983 14.0156 12.375 14.0156H4.35411C2.71156 14.0156 1.375 15.4737 1.375 17.2656V20.0156H11.4584C11.8379 20.0156 12.1459 20.3516 12.1459 20.7656C12.1459 21.1796 11.8379 21.5156 11.4584 21.5156V21.5156Z" fill="white"/>
</g>
<defs>
<clipPath id="clip0">
<rect width="22" height="24" fill="white"/>
</clipPath>
</defs>
</svg>
