<svg width="81" height="51" viewBox="0 0 81 51" fill="none" xmlns="http://www.w3.org/2000/svg">
<path d="M7.60206 18V0.9375H13.731C15.9263 0.9375 17.5942 1.33984 18.7349 2.14453C19.8833 2.94922 20.4575 4.11719 20.4575 5.64844C20.4575 6.53125 20.2544 7.28516 19.8482 7.91016C19.4419 8.53516 18.8442 8.99609 18.0552 9.29297C18.9458 9.52734 19.6294 9.96484 20.106 10.6055C20.5825 11.2461 20.8208 12.0273 20.8208 12.9492C20.8208 14.6211 20.2896 15.8789 19.2271 16.7227C18.1724 17.5586 16.606 17.9844 14.5278 18H7.60206ZM11.7153 10.7461V14.8359H14.4107C15.1528 14.8359 15.7232 14.668 16.1216 14.332C16.52 13.9883 16.7192 13.5078 16.7192 12.8906C16.7192 11.4688 16.0122 10.7539 14.5982 10.7461H11.7153ZM11.7153 8.05078H13.8599C14.7583 8.04297 15.3989 7.87891 15.7817 7.55859C16.1646 7.23828 16.356 6.76562 16.356 6.14062C16.356 5.42188 16.1489 4.90625 15.7349 4.59375C15.3208 4.27344 14.6528 4.11328 13.731 4.11328H11.7153V8.05078ZM27.0786 18H23.1177V5.32031H27.0786V18ZM22.8833 2.05078C22.8833 1.48828 23.0864 1.02734 23.4927 0.667969C23.8989 0.308594 24.4263 0.128906 25.0747 0.128906C25.7232 0.128906 26.2505 0.308594 26.6567 0.667969C27.063 1.02734 27.2661 1.48828 27.2661 2.05078C27.2661 2.61328 27.063 3.07422 26.6567 3.43359C26.2505 3.79297 25.7232 3.97266 25.0747 3.97266C24.4263 3.97266 23.8989 3.79297 23.4927 3.43359C23.0864 3.07422 22.8833 2.61328 22.8833 2.05078ZM29.0239 11.5664C29.0239 9.55859 29.4575 7.97656 30.3247 6.82031C31.1919 5.66406 32.4028 5.08594 33.9575 5.08594C35.0903 5.08594 36.0435 5.53125 36.8169 6.42188V0H40.7778V18H37.2271L37.0278 16.6406C36.2153 17.7031 35.1841 18.2344 33.9341 18.2344C32.4263 18.2344 31.231 17.6562 30.3482 16.5C29.4653 15.3438 29.0239 13.6992 29.0239 11.5664ZM32.9732 11.8125C32.9732 14.0625 33.6294 15.1875 34.9419 15.1875C35.8169 15.1875 36.4419 14.8203 36.8169 14.0859V9.25781C36.4575 8.50781 35.8403 8.13281 34.9653 8.13281C33.7466 8.13281 33.0864 9.11719 32.9849 11.0859L32.9732 11.8125ZM47.3169 14.8359H54.4771V18H43.2036V0.9375H47.3169V14.8359ZM55.5317 11.543C55.5317 10.2773 55.7778 9.15234 56.27 8.16797C56.7622 7.17578 57.4692 6.41406 58.3911 5.88281C59.313 5.35156 60.395 5.08594 61.6372 5.08594C63.5357 5.08594 65.0317 5.67578 66.1255 6.85547C67.2192 8.02734 67.7661 9.625 67.7661 11.6484V11.7891C67.7661 13.7656 67.2153 15.3359 66.1138 16.5C65.02 17.6562 63.5357 18.2344 61.6607 18.2344C59.856 18.2344 58.4067 17.6953 57.313 16.6172C56.2192 15.5312 55.6294 14.0625 55.5435 12.2109L55.5317 11.543ZM59.481 11.7891C59.481 12.9609 59.6646 13.8203 60.0317 14.3672C60.3989 14.9141 60.9419 15.1875 61.6607 15.1875C63.0669 15.1875 63.7857 14.1055 63.8169 11.9414V11.543C63.8169 9.26953 63.0903 8.13281 61.6372 8.13281C60.3169 8.13281 59.6021 9.11328 59.4927 11.0742L59.481 11.7891ZM10.5317 41.4648C10.5317 40.8633 10.3169 40.3945 9.88722 40.0586C9.46534 39.7227 8.71925 39.375 7.64894 39.0156C6.57862 38.6562 5.70362 38.3086 5.02394 37.9727C2.813 36.8867 1.70753 35.3945 1.70753 33.4961C1.70753 32.5508 1.98097 31.7188 2.52784 31C3.08253 30.2734 3.86378 29.7109 4.87159 29.3125C5.87941 28.9062 7.01222 28.7031 8.27003 28.7031C9.49659 28.7031 10.5942 28.9219 11.563 29.3594C12.5396 29.7969 13.2974 30.4219 13.8364 31.2344C14.3755 32.0391 14.645 32.9609 14.645 34H10.5435C10.5435 33.3047 10.3286 32.7656 9.89894 32.3828C9.47706 32 8.90284 31.8086 8.17628 31.8086C7.44191 31.8086 6.85987 31.9727 6.43019 32.3008C6.00831 32.6211 5.79737 33.0312 5.79737 33.5312C5.79737 33.9688 6.03175 34.3672 6.5005 34.7266C6.96925 35.0781 7.79347 35.4453 8.97316 35.8281C10.1528 36.2031 11.1216 36.6094 11.8794 37.0469C13.7232 38.1094 14.645 39.5742 14.645 41.4414C14.645 42.9336 14.0825 44.1055 12.9575 44.957C11.8325 45.8086 10.2896 46.2344 8.32862 46.2344C6.94581 46.2344 5.69191 45.9883 4.56691 45.4961C3.44972 44.9961 2.60597 44.3164 2.03566 43.457C1.47316 42.5898 1.19191 41.5938 1.19191 40.4688H5.31691C5.31691 41.3828 5.55128 42.0586 6.02003 42.4961C6.49659 42.9258 7.26612 43.1406 8.32862 43.1406C9.00831 43.1406 9.54347 42.9961 9.93409 42.707C10.3325 42.4102 10.5317 41.9961 10.5317 41.4648ZM28.3442 39.7539C28.3442 41.7227 27.8989 43.2969 27.0083 44.4766C26.1255 45.6484 24.9302 46.2344 23.4224 46.2344C22.2583 46.2344 21.3013 45.8086 20.5513 44.957V50.875H16.6021V33.3203H20.2935L20.4107 34.4922C21.1685 33.5547 22.1646 33.0859 23.3989 33.0859C24.9614 33.0859 26.1763 33.6641 27.0435 34.8203C27.9107 35.9688 28.3442 37.5508 28.3442 39.5664V39.7539ZM24.395 39.5078C24.395 37.2578 23.7388 36.1328 22.4263 36.1328C21.4888 36.1328 20.8638 36.4688 20.5513 37.1406V42.1328C20.895 42.8359 21.5278 43.1875 22.4497 43.1875C23.7075 43.1875 24.356 42.1016 24.395 39.9297V39.5078ZM36.231 46.2344C34.2857 46.2344 32.7114 45.6562 31.5083 44.5C30.3052 43.3359 29.7036 41.8242 29.7036 39.9648V39.6367C29.7036 38.3398 29.9419 37.1953 30.4185 36.2031C30.9028 35.2109 31.606 34.4453 32.5278 33.9062C33.4497 33.3594 34.5435 33.0859 35.8091 33.0859C37.5903 33.0859 38.9966 33.6406 40.0278 34.75C41.0591 35.8516 41.5747 37.3906 41.5747 39.3672V40.9023H33.7232C33.8638 41.6133 34.1724 42.1719 34.6489 42.5781C35.1255 42.9844 35.7427 43.1875 36.5005 43.1875C37.7505 43.1875 38.7271 42.75 39.4302 41.875L41.2349 44.0078C40.7427 44.6875 40.0435 45.2305 39.1372 45.6367C38.2388 46.0352 37.27 46.2344 36.231 46.2344ZM35.7857 36.1328C34.6294 36.1328 33.9419 36.8984 33.7232 38.4297H37.7075V38.125C37.7232 37.4922 37.563 37.0039 37.2271 36.6602C36.8911 36.3086 36.4107 36.1328 35.7857 36.1328ZM50.3169 46C50.1763 45.7422 50.0513 45.3633 49.9419 44.8633C49.2153 45.7773 48.1997 46.2344 46.895 46.2344C45.6997 46.2344 44.6841 45.875 43.8482 45.1562C43.0122 44.4297 42.5942 43.5195 42.5942 42.4258C42.5942 41.0508 43.1021 40.0117 44.1177 39.3086C45.1333 38.6055 46.6099 38.2539 48.5474 38.2539H49.7661V37.5859C49.7661 36.4219 49.2622 35.8398 48.2544 35.8398C47.3169 35.8398 46.8482 36.3008 46.8482 37.2227H42.8989C42.8989 35.9961 43.4185 35 44.4575 34.2344C45.5044 33.4688 46.8364 33.0859 48.4536 33.0859C50.0708 33.0859 51.3482 33.4805 52.2857 34.2695C53.2232 35.0586 53.7036 36.1406 53.7271 37.5156V43.1289C53.7427 44.293 53.9224 45.1836 54.2661 45.8008V46H50.3169ZM47.8442 43.4219C48.3364 43.4219 48.7427 43.3164 49.063 43.1055C49.3911 42.8945 49.6255 42.6562 49.7661 42.3906V40.3633H48.6177C47.2427 40.3633 46.5552 40.9805 46.5552 42.2148C46.5552 42.5742 46.6763 42.8672 46.9185 43.0938C47.1607 43.3125 47.4692 43.4219 47.8442 43.4219ZM61.0161 41.2773L59.9028 42.3906V46H55.9536V27.9883H59.9028V37.5508L60.3013 37.0234L63.2778 33.3203H68.0122L63.5708 38.5352L68.3052 46H63.7817L61.0161 41.2773ZM75.688 42.4375C75.688 42.1016 75.5122 41.832 75.1607 41.6289C74.8091 41.4258 74.1411 41.2148 73.1568 40.9961C72.1724 40.7773 71.3599 40.4922 70.7193 40.1406C70.0786 39.7812 69.5903 39.3477 69.2544 38.8398C68.9185 38.332 68.7505 37.75 68.7505 37.0938C68.7505 35.9297 69.231 34.9727 70.1919 34.2227C71.1528 33.4648 72.4107 33.0859 73.9653 33.0859C75.6372 33.0859 76.981 33.4648 77.9966 34.2227C79.0122 34.9805 79.52 35.9766 79.52 37.2109H75.5591C75.5591 36.1953 75.0239 35.6875 73.9536 35.6875C73.5396 35.6875 73.1919 35.8047 72.9107 36.0391C72.6294 36.2656 72.4888 36.5508 72.4888 36.8945C72.4888 37.2461 72.6607 37.5312 73.0044 37.75C73.3482 37.9688 73.895 38.1484 74.645 38.2891C75.4028 38.4297 76.0669 38.5977 76.6372 38.793C78.5435 39.4492 79.4966 40.625 79.4966 42.3203C79.4966 43.4766 78.981 44.418 77.9497 45.1445C76.9263 45.8711 75.5982 46.2344 73.9653 46.2344C72.8794 46.2344 71.9107 46.0391 71.0591 45.6484C70.2075 45.2578 69.5435 44.7266 69.0669 44.0547C68.5903 43.3828 68.3521 42.6758 68.3521 41.9336H72.0435C72.0591 42.5195 72.2544 42.9492 72.6294 43.2227C73.0044 43.4883 73.4849 43.6211 74.0708 43.6211C74.6099 43.6211 75.0122 43.5117 75.2778 43.293C75.5513 43.0742 75.688 42.7891 75.688 42.4375Z" fill="white"/>
<path d="M6.313 12H74.3755V13.1953H6.313V12ZM0.441906 40H80.2349V41.1953H0.441906V40Z" fill="white"/>
</svg>
