<svg width="37" height="32" viewBox="0 0 37 32" fill="none" xmlns="http://www.w3.org/2000/svg">
<rect width="32" height="32" rx="5" fill="#4D76A1"/>
<path d="M8.66016 13H7.81201V10.0425H4.58643V13H3.74268V6.60156H4.58643V9.35254H7.81201V6.60156H8.66016V13ZM12.0044 13.0879C11.3599 13.0879 10.8354 12.877 10.4312 12.4551C10.0269 12.0303 9.82471 11.4634 9.82471 10.7544V10.605C9.82471 10.1333 9.91406 9.71289 10.0928 9.34375C10.2744 8.97168 10.5264 8.68164 10.8486 8.47363C11.1738 8.2627 11.5254 8.15723 11.9033 8.15723C12.5215 8.15723 13.002 8.36084 13.3447 8.76807C13.6875 9.17529 13.8589 9.7583 13.8589 10.5171V10.8555H10.6377C10.6494 11.3242 10.7856 11.7036 11.0464 11.9937C11.3101 12.2808 11.644 12.4243 12.0483 12.4243C12.3354 12.4243 12.5786 12.3657 12.7778 12.2485C12.9771 12.1313 13.1514 11.9761 13.3008 11.7827L13.7974 12.1694C13.3989 12.7817 12.8013 13.0879 12.0044 13.0879ZM11.9033 8.8252C11.5752 8.8252 11.2998 8.94531 11.0771 9.18555C10.8545 9.42285 10.7168 9.75684 10.6641 10.1875H13.0459V10.126C13.0225 9.71289 12.9111 9.39355 12.7119 9.16797C12.5127 8.93945 12.2432 8.8252 11.9033 8.8252ZM7.5 24H6.68701V21.9697H4.50293V24H3.68555V19.2451H4.50293V21.3062H6.68701V19.2451H7.5V24ZM11.7451 24C11.6982 23.9062 11.6602 23.7393 11.6309 23.499C11.2529 23.8916 10.8018 24.0879 10.2773 24.0879C9.80859 24.0879 9.42334 23.9561 9.12158 23.6924C8.82275 23.4258 8.67334 23.0889 8.67334 22.6816C8.67334 22.1865 8.86084 21.8027 9.23584 21.5303C9.61377 21.2549 10.144 21.1172 10.8267 21.1172H11.6177V20.7437C11.6177 20.4595 11.5327 20.2339 11.3628 20.0669C11.1929 19.897 10.9424 19.812 10.6113 19.812C10.3213 19.812 10.0781 19.8853 9.88184 20.0317C9.68555 20.1782 9.5874 20.3555 9.5874 20.5635H8.77002C8.77002 20.3262 8.85352 20.0977 9.02051 19.8779C9.19043 19.6553 9.41895 19.4795 9.70605 19.3506C9.99609 19.2217 10.314 19.1572 10.6597 19.1572C11.2075 19.1572 11.6367 19.2949 11.9473 19.5703C12.2578 19.8428 12.4189 20.2192 12.4307 20.6997V22.8882C12.4307 23.3247 12.4863 23.6719 12.5977 23.9297V24H11.7451ZM10.396 23.3804C10.6509 23.3804 10.8926 23.3145 11.1211 23.1826C11.3496 23.0508 11.5151 22.8794 11.6177 22.6685V21.6929H10.9805C9.98438 21.6929 9.48633 21.9844 9.48633 22.5674C9.48633 22.8223 9.57129 23.0215 9.74121 23.165C9.91113 23.3086 10.1294 23.3804 10.396 23.3804ZM14.5928 19.2451V23.3364H16.333V19.2451H17.146V23.3364H18.8818V19.2451H19.6992V24H13.7754V19.2451H14.5928ZM22.9556 24.0879C22.311 24.0879 21.7866 23.877 21.3823 23.4551C20.978 23.0303 20.7759 22.4634 20.7759 21.7544V21.605C20.7759 21.1333 20.8652 20.7129 21.0439 20.3438C21.2256 19.9717 21.4775 19.6816 21.7998 19.4736C22.125 19.2627 22.4766 19.1572 22.8545 19.1572C23.4727 19.1572 23.9531 19.3608 24.2959 19.7681C24.6387 20.1753 24.8101 20.7583 24.8101 21.5171V21.8555H21.5889C21.6006 22.3242 21.7368 22.7036 21.9976 22.9937C22.2612 23.2808 22.5952 23.4243 22.9995 23.4243C23.2866 23.4243 23.5298 23.3657 23.729 23.2485C23.9282 23.1313 24.1025 22.9761 24.252 22.7827L24.7485 23.1694C24.3501 23.7817 23.7524 24.0879 22.9556 24.0879ZM22.8545 19.8252C22.5264 19.8252 22.251 19.9453 22.0283 20.1855C21.8057 20.4229 21.668 20.7568 21.6152 21.1875H23.9971V21.126C23.9736 20.7129 23.8623 20.3936 23.6631 20.168C23.4639 19.9395 23.1943 19.8252 22.8545 19.8252ZM29.6528 19.2451V24H28.8354V19.9175H27.2183L27.1216 21.6973C27.0688 22.5146 26.9312 23.0991 26.7085 23.4507C26.4888 23.8022 26.1387 23.9854 25.6582 24H25.333V23.2837L25.5659 23.2661C25.8296 23.2368 26.0186 23.0845 26.1328 22.8091C26.2471 22.5337 26.3203 22.0239 26.3525 21.2798L26.4404 19.2451H29.6528Z" fill="black"/>
</svg>
